<?xml version="1.0" encoding="UTF-8"?>
<svg width="68px" height="64px" viewBox="0 0 68 64" version="1.1" xmlns="http://www.w3.org/2000/svg" xmlns:xlink="http://www.w3.org/1999/xlink">
    <!-- Generator: Sketch 40.3 (33839) - http://www.bohemiancoding.com/sketch -->
    <title>bestprice</title>
    <desc>Created with Sketch.</desc>
    <defs></defs>
    <g id="Page-1" stroke="none" stroke-width="1" fill="none" fill-rule="evenodd">
        <g id="Artboard-3" transform="translate(-338.000000, -712.000000)" fill="#003554">
            <g id="bestprice" transform="translate(338.000000, 712.000000)">
                <path d="M42,48.1 C44.7,48.1 47.2,47.1 49.1,45.2 C53,41.3 53,35 49.1,31.1 C47.2,29.2 44.7,28.2 42,28.2 C39.3,28.2 36.8,29.2 34.9,31.1 C31,35 31,41.3 34.9,45.2 C36.8,47.1 39.3,48.1 42,48.1 L42,48.1 Z M49.3,43.3 C47.5,45.8 44.7,47.1 42,47.1 C39.7,47.1 37.4,46.2 35.6,44.5 C34.1,43 33.2,41 33,39 L41,39 C42.1,39 43,38.1 43,37 L43,29.2 C45.4,29.5 47.7,30.7 49.3,32.9 C51.6,35.9 51.6,40.2 49.3,43.3 L49.3,43.3 Z M35.6,31.8 C37.4,30 39.7,29.2 42,29.2 L42,29.2 L42,37 C42,37.6 41.6,38 41,38 L33,38 C33,35.7 33.9,33.5 35.6,31.8 L35.6,31.8 Z" id="Shape"></path>
                <path d="M66.8,57.2 L63,53.3 L63,53 L63,30.4 C63,29.9 62.8,29.4 62.4,29 L62,28.6 L62,28.4 L62.4,28 C62.8,27.6 63,27.1 63,26.6 L63,4 C63,1.8 61.2,0 59,0 L33.4,0 C32.9,0 32.4,0.2 32,0.6 L31.6,1 L31.4,1 L31,0.6 C30.6,0.2 30.1,0 29.6,0 L4,0 C1.8,0 0,1.8 0,4 L0,26.6 C0,27.1 0.2,27.6 0.6,28 L1,28.4 L1,28.6 L0.6,29 C0.2,29.4 0,29.9 0,30.4 L0,53 C0,55.2 1.8,57 4,57 L29.6,57 C30.1,57 30.6,56.8 31,56.4 L31.4,56 L31.6,56 L32,56.4 C32.4,56.8 32.9,57 33.4,57 L55.3,57 L61.2,62.8 C61.9,63.6 62.9,64 64,64 C65.1,64 66.1,63.6 66.8,62.8 C67.6,62 68,61 68,60 C68,59 67.6,57.9 66.8,57.2 L66.8,57.2 Z M54.3,44.7 C57,39.7 56.5,33.5 52.7,29 L60,29 C60,29.3 60.1,29.5 60.3,29.7 L61,30.4 L61,51.3 L54.3,44.7 L54.3,44.7 Z M33.5,29.5 C35.8,27.2 38.8,26 42,26 C45.2,26 48.2,27.2 50.5,29.5 C55.2,34.2 55.2,41.8 50.5,46.5 C48.2,48.8 45.2,50 42,50 C38.8,50 35.8,48.8 33.5,46.5 C28.8,41.8 28.8,34.2 33.5,29.5 L33.5,29.5 Z M28.6,34 L26,34 L26,21.1 L31,17 L31,17 L31,20.2 C29.8,20.4 29,21.4 29,22.7 C29,24.1 30.1,25.2 31.5,25.2 C32.9,25.2 34,24 34,22.6 C34,21.4 33.2,20.4 32,20.2 L32,17 L37,21.1 L37,24.9 C35.2,25.6 33.5,26.7 32.1,28.1 C30.4,29.8 29.2,31.8 28.6,34 L28.6,34 Z M32,3 C32.3,3 32.5,2.9 32.7,2.7 L33.4,2 L59,2 C60.1,2 61,2.9 61,4 L61,26.6 L60.3,27.3 C60.1,27.5 60,27.7 60,28 L51.8,28 C49.2,25.4 45.7,24 42,24 C41,24 40,24.1 39,24.3 L39,21.1 C39,20.5 38.7,19.9 38.3,19.6 L33.3,15.5 C32.9,15.2 32.5,15 32,15 L32,3 L32,3 Z M31.5,21.1 C32.3,21.1 33,21.8 33,22.6 C33,23.4 32.3,24.1 31.5,24.1 C30.7,24.1 30,23.4 30,22.6 C30,21.8 30.7,21.1 31.5,21.1 L31.5,21.1 Z M2,4 C2,2.9 2.9,2 4,2 L29.6,2 L30.3,2.7 C30.5,2.9 30.7,3 31,3 L31,3 L31,15 L31,15 C30.5,15 30.1,15.2 29.7,15.5 L24.7,19.6 C24.3,20 24,20.5 24,21.1 L24,28 L3,28 C3,27.7 2.9,27.5 2.7,27.3 L2,26.6 L2,4 L2,4 Z M31,54 C30.7,54 30.5,54.1 30.3,54.3 L29.6,55 L4,55 C2.9,55 2,54.1 2,53 L2,30.4 L2.7,29.7 C2.9,29.5 3,29.3 3,29 L24,29 L24,34 C24,35.1 24.9,36 26,36 L28.2,36 C28.1,36.7 28,37.3 28,38 C28,41.2 29.1,44.2 31,46.7 L31,54 L31,54 L31,54 Z M33.4,55 L32.7,54.3 C32.5,54.1 32.3,54 32,54 L32,47.8 L32.1,47.9 C34.7,50.5 38.3,52 42,52 C44.4,52 46.6,51.4 48.6,50.3 L53.3,55 L33.4,55 L33.4,55 Z M65.4,61.4 C64.7,62.1 63.4,62.1 62.6,61.4 L50.7,49.6 L53.5,46.8 L65.4,58.6 C65.8,59 66,59.5 66,60 C66,60.5 65.8,61 65.4,61.4 L65.4,61.4 Z" id="Shape"></path>
            </g>
        </g>
    </g>
</svg>