<?xml version="1.0" encoding="UTF-8"?>
<svg width="61px" height="71px" viewBox="0 0 61 71" version="1.1" xmlns="http://www.w3.org/2000/svg" xmlns:xlink="http://www.w3.org/1999/xlink">
    <!-- Generator: Sketch 40.3 (33839) - http://www.bohemiancoding.com/sketch -->
    <title>deshevo</title>
    <desc>Created with Sketch.</desc>
    <defs></defs>
    <g id="Page-1" stroke="none" stroke-width="1" fill="none" fill-rule="evenodd">
        <g id="Artboard-3" transform="translate(-750.000000, -708.000000)" fill="#1778A7">
            <g id="deshevo" transform="translate(750.000000, 708.000000)">
                <path d="M60.5,17.7 L33.5,2.1 C33.2,1.9 32.8,1.9 32.5,2.1 L31.7,2.5 L27.5,0.1 C27.3,0 27.2,0 27,0 C26.8,0 26.7,0 26.5,0.1 L0.5,15.1 C0.2,15.3 0,15.7 0,16 L0,65 C0,65.6 0.4,66 1,66 L5,66 L5,70 C5,70.6 5.4,71 6,71 L60,71 C60.6,71 61,70.6 61,70 L61,18.6 C61,18.2 60.8,17.9 60.5,17.7 L60.5,17.7 Z M2,64 L2,16.6 L27,2.2 L29.7,3.8 L5.5,17.8 C5.2,17.9 5,18.2 5,18.6 L5,64 L2,64 L2,64 Z M59,69 L7,69 L7,19.2 L33,4.2 L59,19.2 L59,69 L59,69 Z" id="Shape"></path>
                <path d="M29,13 C29,15.2 30.8,17 33,17 C35.2,17 37,15.2 37,13 C37,10.8 35.2,9 33,9 C30.8,9 29,10.8 29,13 L29,13 Z M36,13 C36,14.7 34.7,16 33,16 C31.3,16 30,14.7 30,13 C30,11.3 31.3,10 33,10 C34.7,10 36,11.3 36,13 L36,13 Z" id="Shape"></path>
                <path d="M27,29 C26.4,29 26,29.4 26,30 L26,42 L23,42 C22.4,42 22,42.4 22,43 L22,46 C22,46.6 22.4,47 23,47 L26,47 L26,49 L23,49 C22.4,49 22,49.4 22,50 L22,52 C22,52.6 22.4,53 23,53 L26,53 L26,57 C26,57.6 26.4,58 27,58 L31,58 C31.6,58 32,57.6 32,57 L32,53 L36,53 C36.6,53 37,52.6 37,52 L37,50 C37,49.4 36.6,49 36,49 L32,49 L32,47 L34.9,47 C38,47 40.4,46.2 42.2,44.6 C44,43 45,40.7 45,38 C45,35.3 44,33 42.2,31.4 C40.4,29.8 37.9,29 34.8,29 L27,29 L27,29 Z M44,38 C44,40.4 43.2,42.4 41.6,43.8 C40,45.2 37.7,46 34.9,46 L31,46 L31,50 L36,50 L36,52 L31,52 L31,57 L27,57 L27,52 L23,52 L23,50 L27,50 L27,46 L23,46 L23,43 L27,43 L27,30 L34.9,30 C37.7,30 40,30.7 41.6,32.2 C43.2,33.6 44,35.6 44,38 L44,38 Z" id="Shape"></path>
                <path d="M31,43 L34.9,43 C37.2,43 39,41.2 39,38.9 L39,37.1 C39,34.8 37.2,33 34.9,33 L31,33 L31,43 L31,43 Z M32,34 L34.9,34 C36.6,34 38,35.4 38,37.1 L38,38.9 C38,40.6 36.6,42 34.9,42 L32,42 L32,34 L32,34 Z" id="Shape"></path>
            </g>
        </g>
    </g>
</svg>