<?xml version="1.0" encoding="UTF-8"?>
<svg width="91px" height="106px" viewBox="0 0 91 106" version="1.1" xmlns="http://www.w3.org/2000/svg" xmlns:xlink="http://www.w3.org/1999/xlink">
    <!-- Generator: Sketch 40.3 (33839) - http://www.bohemiancoding.com/sketch -->
    <title>Economi</title>
    <desc>Created with Sketch.</desc>
    <defs></defs>
    <g id="Page-1" stroke="none" stroke-width="1" fill="none" fill-rule="evenodd">
        <g id="Artboard-3" transform="translate(-704.000000, -175.000000)" fill="#3BA8DE">
            <g id="Economi" transform="translate(704.000000, 175.000000)">
                <g id="Layer_1">
                    <g id="Group">
                        <path d="M91,77 C91,57.8 78.3,36.3 61.3,26.4 C54.4,36.7 37.7,36.7 30.8,26.4 C13.7,36.3 1,57.8 1,77 C1,82.6 2.5,88.5 4.3,92.1 C1.4,95.6 -0.2,99.7 1.9,101.8 C4,103.9 9.1,103.4 12.8,100.7 C20.9,105.2 32.7,106 45.9,106 C59,106 70.8,105.2 79,100.7 C82.7,103.4 87.8,103.9 89.9,101.8 C92,99.7 90.4,95.6 87.5,92.1 C89.5,88.5 91,82.6 91,77 L91,77 Z M58.7,70.1 C56.5,72.1 53.4,73 49.6,73 L43,73 L43,77 L52,77 L52,80 L43,80 L43,86 L37,86 L37,80 L33,80 L33,77 L37,77 L37,73 L33,73 L33,69 L37,69 L37,52 L49.5,52 C53.4,52 56.4,53 58.6,55 C60.8,57 61.9,59.6 61.9,62.8 C62,65.9 60.9,68.1 58.7,70.1 L58.7,70.1 Z" id="Shape"></path>
                        <path d="M31.1,21.6 C38.3,32.9 53.9,32.9 61.2,21.6 L65.2,13.4 C70.8,4.7 70.4,1.3 62.7,0.3 C59.3,-0.2 55.9,-1.88737914e-15 52.5,0.8 C50.4,1.3 47.8,1.8 46.2,1.8 C44.6,1.8 42,1.3 39.9,0.8 C36.5,0.1 33,-0.2 29.6,0.2 C21.7,1.2 21,4.6 26.6,13.3 L31.1,21.6 L31.1,21.6 Z" id="Shape"></path>
                        <path d="M49.5,56 L43,56 L43,69 L49.5,69 C52.5,69 55,66.5 55,63.5 L55,61.5 C55,58.5 52.5,56 49.5,56 L49.5,56 Z" id="Shape"></path>
                    </g>
                </g>
            </g>
        </g>
    </g>
</svg>