<?xml version="1.0" encoding="UTF-8"?>
<svg width="95px" height="56px" viewBox="0 0 95 56" version="1.1" xmlns="http://www.w3.org/2000/svg" xmlns:xlink="http://www.w3.org/1999/xlink">
    <!-- Generator: Sketch 40.3 (33839) - http://www.bohemiancoding.com/sketch -->
    <title>fast</title>
    <desc>Created with Sketch.</desc>
    <defs></defs>
    <g id="Page-1" stroke="none" stroke-width="1" fill="none" fill-rule="evenodd">
        <g id="Artboard-3" transform="translate(-311.000000, -425.000000)" fill="#1778A7">
            <g id="fast" transform="translate(311.000000, 425.000000)">
                <path d="M27,40 C23.7,40 21,42.7 21,46 C21,49.3 23.7,52 27,52 C30.3,52 33,49.3 33,46 C33,42.7 30.3,40 27,40 L27,40 Z M27,51 C24.2,51 22,48.8 22,46 C22,43.2 24.2,41 27,41 C29.8,41 32,43.2 32,46 C32,48.8 29.8,51 27,51 L27,51 Z" id="Shape"></path>
                <path d="M77,40 C73.7,40 71,42.7 71,46 C71,49.3 73.7,52 77,52 C80.3,52 83,49.3 83,46 C83,42.7 80.3,40 77,40 L77,40 Z M77,51 C74.2,51 72,48.8 72,46 C72,43.2 74.2,41 77,41 C79.8,41 82,43.2 82,46 C82,48.8 79.8,51 77,51 L77,51 Z" id="Shape"></path>
                <rect id="Rectangle-path" x="5" y="27" width="6" height="2"></rect>
                <rect id="Rectangle-path" x="4" y="23" width="7" height="2"></rect>
                <rect id="Rectangle-path" x="3" y="19" width="8" height="2"></rect>
                <rect id="Rectangle-path" x="2" y="15" width="9" height="2"></rect>
                <rect id="Rectangle-path" x="1" y="11" width="10" height="2"></rect>
                <path d="M95,31.6 C95,29.7 94.4,27.9 93.4,26.4 L83.8,11.8 C83.1,10.7 81.8,10 80.5,10 L67,10 L67,4 C67,1.8 65.2,0 63,0 L13,0 C10.8,0 9,1.8 9,4 L9,7 L0,7 L0,9 L11,9 L11,4 C11,2.9 11.9,2 13,2 L63,2 C64.1,2 65,2.9 65,4 L65,41 L35.6,41 C33.9,38 30.6,36 27,36 C23.4,36 20.1,38 18.4,41 L13,41 C11.9,41 11,40.1 11,39 L11,31 L6,31 L6,33 L9,33 L9,38 C9,39.2 9.5,40.3 10.4,41 C9.6,41.7 9,42.8 9,44.1 C9,46.3 11,48 13.2,48 L17.2,48 C18.1,52.6 22.2,56 27,56 C31.8,56 35.9,52.6 36.8,48 L67.2,48 C68.1,52.6 72.2,56 77,56 C81.8,56 85.9,52.6 86.8,48 L91,48 C93.2,48 95,46.2 95,44 C95,42.8 94.5,41.8 93.6,41 C94.4,40.3 95,39.2 95,38 L95,31.6 L95,31.6 Z M17,46 L13,46 C11.7,46 10.8,44.8 11.1,43.4 C11.3,42.6 12.2,41.9 13,41.9 L17.9,41.9 C17.3,43.1 17,44.6 17,46 L17,46 Z M27,54 C22.6,54 19,50.4 19,46 C19,41.6 22.6,38 27,38 C31.4,38 35,41.6 35,46 C35,50.4 31.4,54 27,54 L27,54 Z M84.1,16 L92,28 L92,28 L73,28 C72.4,28 72,27.6 72,27 L72,17 C72,16.4 72.4,16 73,16 L84.1,16 L84.1,16 Z M67,46 L37,46 C37,44.6 36.7,43.1 36.2,41.9 L67.9,41.9 C67.3,43.1 67,44.6 67,46 L67,46 Z M77,54 C72.6,54 69,50.4 69,46 C69,41.6 72.6,38 77,38 C81.4,38 85,41.6 85,46 C85,50.4 81.4,54 77,54 L77,54 Z M90.9,46 L87,46 C87,44.6 86.7,43.2 86.2,42 L91,42 L91,42 C92.1,42 92.9,42.8 93,43.9 C93,45.1 92,46 90.9,46 L90.9,46 Z M93,39 C93,40.1 92.1,41 91,41 L85.6,41 C83.9,38 80.6,36 77,36 C73.4,36 70.1,38 68.4,41 L66,41 L66,12 L80.4,12 C81.1,12 81.7,12.3 82.1,12.9 L83.5,15 L73,15 C71.9,15 71,15.9 71,17 L71,27 C71,28.1 71.9,29 73,29 L92.5,29 C92.8,29.8 93,30.7 93,31.6 L93,39 L93,39 Z" id="Shape"></path>
            </g>
        </g>
    </g>
</svg>