<?xml version="1.0" encoding="UTF-8"?>
<svg width="115px" height="110px" viewBox="0 0 115 110" version="1.1" xmlns="http://www.w3.org/2000/svg" xmlns:xlink="http://www.w3.org/1999/xlink">
    <!-- Generator: Sketch 40.2 (33826) - http://www.bohemiancoding.com/sketch -->
    <title>icon_safe</title>
    <desc>Created with Sketch.</desc>
    <defs></defs>
    <g id="Page-1" stroke="none" stroke-width="1" fill="none" fill-rule="evenodd">
        <g id="Artboard-3" transform="translate(-1474.000000, -467.000000)" fill="#36A9E0">
            <path d="M1582.30331,543.954773 C1582.29956,544.370525 1581.92688,544.863059 1581.46806,545.055953 L1538.83479,562.965107 C1538.43777,563.133655 1538.11004,562.957616 1538.10442,562.575574 L1538.07258,560.491198 C1538.06509,560.107283 1538.38346,559.657822 1538.78236,559.489274 L1581.49053,541.295461 C1581.94936,541.100695 1582.32016,541.278606 1582.31642,541.696231 L1582.30331,543.954773 L1582.30331,543.954773 Z M1551.57702,549.149795 C1551.58264,549.94197 1550.91406,550.872729 1550.08256,551.232298 L1546.35016,552.842867 C1545.53177,553.196818 1544.86319,552.848486 1544.85383,552.067547 L1544.63472,534.178993 L1542.21886,535.300773 C1541.08397,535.827017 1540.35922,534.961804 1540.91168,533.742641 L1546.56927,521.258857 C1547.14046,519.998493 1548.59934,519.290592 1549.19487,519.987257 L1555.22327,527.051288 C1555.8263,527.755444 1555.09031,529.328558 1553.90485,529.879148 L1551.41596,531.032765 L1551.57702,549.149795 L1551.57702,549.149795 Z M1577.85926,518.766221 L1575.16998,520.013475 L1575.11567,538.932045 C1575.1138,539.757929 1574.38343,540.742998 1573.48825,541.128786 L1569.46183,542.866702 C1568.57976,543.248744 1567.86624,542.894794 1567.86624,542.080145 L1567.85126,523.40878 L1565.24813,524.616707 C1564.02335,525.184151 1563.25552,524.294593 1563.86416,523.011756 L1570.0892,509.878126 C1570.71657,508.552216 1572.29343,507.788132 1572.92268,508.50727 L1579.31064,515.78854 C1579.94925,516.515169 1579.14022,518.172557 1577.85926,518.766221 L1577.85926,518.766221 Z M1564.00649,480.436548 L1508.46246,506.548368 L1508.46246,523.317015 L1498.77282,519.007806 L1498.77282,502.241032 L1554.31686,476.127339 L1535.66047,467.832908 C1533.16222,466.722364 1529.07587,466.722364 1526.57761,467.832908 L1480.63707,488.259045 C1476.9777,489.886468 1473.99066,494.495318 1474.00002,498.499268 L1474.11239,546.385609 C1474.12175,550.434505 1477.17621,555.0471 1480.89738,556.638941 L1526.71807,576.226084 C1529.13392,577.257972 1533.08918,577.257972 1535.50504,576.226084 L1581.34071,556.638941 C1585.06187,555.0471 1588.11634,550.434505 1588.1257,546.387481 L1588.23807,498.499268 C1588.24743,494.495318 1585.26039,489.886468 1581.60102,488.259045 L1564.00649,480.436548 L1564.00649,480.436548 Z" id="icon_safe"></path>
        </g>
    </g>
</svg>