<?xml version="1.0" encoding="UTF-8"?>
<svg width="115px" height="111px" viewBox="0 0 115 111" version="1.1" xmlns="http://www.w3.org/2000/svg" xmlns:xlink="http://www.w3.org/1999/xlink">
    <!-- Generator: Sketch 40.2 (33826) - http://www.bohemiancoding.com/sketch -->
    <title>icon_fast</title>
    <desc>Created with Sketch.</desc>
    <defs></defs>
    <g id="Page-1" stroke="none" stroke-width="1" fill="none" fill-rule="evenodd">
        <g id="Artboard-3" transform="translate(-1261.000000, -466.000000)" fill="#36A9E0">
            <path d="M1279.794,572.875 C1277.656,572.875 1275.933,571.152 1275.933,569.014 C1275.933,566.892 1277.656,565.153 1279.794,565.153 C1281.916,565.153 1283.655,566.892 1283.655,569.014 C1283.655,571.152 1281.916,572.875 1279.794,572.875 L1279.794,572.875 Z M1279.794,561.308 C1275.534,561.308 1272.072,564.755 1272.072,569.014 C1272.072,573.274 1275.534,576.736 1279.794,576.736 C1284.053,576.736 1287.5,573.274 1287.5,569.014 C1287.5,564.755 1284.053,561.308 1279.794,561.308 L1279.794,561.308 Z M1320.157,572.875 C1318.019,572.875 1316.296,571.152 1316.296,569.014 C1316.296,566.892 1318.019,565.153 1320.157,565.153 C1322.279,565.153 1324.002,566.892 1324.002,569.014 C1324.002,571.152 1322.279,572.875 1320.157,572.875 L1320.157,572.875 Z M1320.157,561.308 C1315.897,561.308 1312.435,564.755 1312.435,569.014 C1312.435,573.274 1315.897,576.736 1320.157,576.736 C1324.417,576.736 1327.863,573.274 1327.863,569.014 C1327.863,564.755 1324.417,561.308 1320.157,561.308 L1320.157,561.308 Z M1337.947,555.595 L1337.947,563.828 C1337.947,565.882 1336.282,567.547 1334.228,567.547 L1330.249,567.547 C1329.53,562.614 1325.278,558.82 1320.145,558.82 C1315.025,558.82 1310.773,562.614 1310.054,567.547 L1289.884,567.547 C1289.165,562.614 1284.913,558.82 1279.793,558.82 C1274.674,558.82 1270.421,562.614 1269.702,567.547 L1264.719,567.547 C1262.665,567.547 1261,565.882 1261,563.828 L1261,555.595 L1337.947,555.595 L1337.947,555.595 Z M1330.112,547.78 L1315.961,547.78 C1315.642,547.78 1315.387,547.525 1315.387,547.205 L1315.387,536.277 C1315.387,535.958 1315.642,535.702 1315.961,535.702 L1318.657,535.702 C1318.801,535.702 1318.96,535.766 1319.072,535.862 L1330.511,546.79 C1330.894,547.141 1330.639,547.78 1330.112,547.78 L1330.112,547.78 Z M1336.478,547.301 L1321.864,532.847 C1320.939,531.922 1319.678,531.411 1318.386,531.411 L1311.015,531.411 L1311.015,528.651 C1311.015,526.593 1309.34,524.934 1307.282,524.934 L1264.718,524.934 C1262.66,524.934 1261,526.593 1261,528.651 L1261,553.539 L1337.946,553.539 L1337.946,550.827 C1337.945,549.503 1337.419,548.226 1336.478,547.301 L1336.478,547.301 Z M1375.675,513.474 C1375.675,534.584 1361.823,552.511 1342.733,558.664 L1342.732,551.904 C1358.238,546.021 1369.294,531.017 1369.294,513.474 C1369.294,490.816 1350.86,472.382 1328.202,472.382 C1305.544,472.382 1287.11,490.816 1287.11,513.474 C1287.11,515.747 1287.304,517.975 1287.661,520.148 L1281.207,520.148 C1280.899,517.966 1280.729,515.74 1280.729,513.474 C1280.729,487.297 1302.025,466 1328.202,466 C1354.379,466 1375.675,487.297 1375.675,513.474 L1375.675,513.474 Z M1325.088,513.474 C1325.088,511.757 1326.485,510.359 1328.202,510.359 C1329.92,510.359 1331.318,511.757 1331.318,513.474 C1331.318,515.192 1329.921,516.59 1328.202,516.59 C1326.485,516.59 1325.088,515.192 1325.088,513.474 L1325.088,513.474 Z M1334.433,512.723 C1334.295,511.578 1333.859,510.533 1333.19,509.66 L1337.785,481.141 C1337.956,480.08 1337.276,479.068 1336.229,478.827 L1336.177,478.815 C1335.13,478.573 1334.075,479.184 1333.764,480.213 L1325.392,507.859 C1323.329,508.896 1321.897,511.011 1321.897,513.474 C1321.897,516.951 1324.725,519.781 1328.202,519.781 C1328.85,519.781 1329.463,519.654 1330.051,519.472 L1347.54,528.56 C1348.502,529.06 1349.687,528.748 1350.277,527.839 L1350.304,527.798 C1350.894,526.889 1350.698,525.68 1349.849,525.004 L1334.433,512.723 L1334.433,512.723 Z" id="icon_fast"></path>
        </g>
    </g>
</svg>