<?xml version="1.0" encoding="UTF-8"?>
<svg width="62px" height="76px" viewBox="0 0 62 76" version="1.1" xmlns="http://www.w3.org/2000/svg" xmlns:xlink="http://www.w3.org/1999/xlink">
    <!-- Generator: Sketch 40.3 (33839) - http://www.bohemiancoding.com/sketch -->
    <title>inspect</title>
    <desc>Created with Sketch.</desc>
    <defs></defs>
    <g id="Page-1" stroke="none" stroke-width="1" fill="none" fill-rule="evenodd">
        <g id="Artboard-3" transform="translate(-442.000000, -814.000000)" fill="#003554">
            <g id="inspect" transform="translate(442.000000, 814.000000)">
                <path d="M5,14 C4.4,14 4,14.4 4,15 L4,71 C4,71.6 4.4,72 5,72 L57,72 C57.6,72 58,71.6 58,71 L58,15 C58,14.4 57.6,14 57,14 L5,14 L5,14 Z M56,70 L6,70 L6,16 L56,16 L56,70 L56,70 Z" id="Shape"></path>
                <path d="M9,68 L53,68 C53.6,68 54,67.6 54,67 L54,19 C54,18.4 53.6,18 53,18 L9,18 C8.4,18 8,18.4 8,19 L8,67 C8,67.6 8.4,68 9,68 L9,68 Z M9,19 L53,19 L53,67 L9,67 L9,19 L9,19 Z" id="Shape"></path>
                <rect id="Rectangle-path" x="25" y="28" width="21" height="1"></rect>
                <rect id="Rectangle-path" x="25" y="31" width="21" height="1"></rect>
                <path d="M18.3,31.6 C18.5,31.8 18.8,31.9 19,31.9 C19.2,31.9 19.5,31.8 19.7,31.6 L22.6,28.7 C23,28.3 23,27.7 22.6,27.3 C22.2,26.9 21.6,26.9 21.2,27.3 L19,29.5 L17.6,28.1 C17.2,27.7 16.6,27.7 16.2,28.1 C15.8,28.5 15.8,29.1 16.2,29.5 L18.3,31.6 L18.3,31.6 Z" id="Shape"></path>
                <rect id="Rectangle-path" x="25" y="36" width="21" height="1"></rect>
                <rect id="Rectangle-path" x="25" y="39" width="21" height="1"></rect>
                <path d="M21.3,35.4 L19.1,37.6 L17.7,36.2 C17.3,35.8 16.7,35.8 16.3,36.2 C15.9,36.6 15.9,37.2 16.3,37.6 L18.4,39.7 C18.6,39.9 18.9,40 19.1,40 C19.3,40 19.6,39.9 19.8,39.7 L22.7,36.8 C23.1,36.4 23.1,35.8 22.7,35.4 C22.3,35 21.7,35 21.3,35.4 L21.3,35.4 Z" id="Shape"></path>
                <rect id="Rectangle-path" x="25" y="44" width="21" height="1"></rect>
                <rect id="Rectangle-path" x="25" y="47" width="21" height="1"></rect>
                <path d="M21.3,43.4 L19.1,45.6 L17.7,44.2 C17.3,43.8 16.7,43.8 16.3,44.2 C15.9,44.6 15.9,45.2 16.3,45.6 L18.4,47.7 C18.6,47.9 18.9,48 19.1,48 C19.3,48 19.6,47.9 19.8,47.7 L22.7,44.8 C23.1,44.4 23.1,43.8 22.7,43.4 C22.3,43 21.7,43 21.3,43.4 L21.3,43.4 Z" id="Shape"></path>
                <rect id="Rectangle-path" x="25" y="52" width="21" height="1"></rect>
                <rect id="Rectangle-path" x="25" y="55" width="21" height="1"></rect>
                <path d="M21.3,51.4 L19.1,53.6 L17.7,52.2 C17.3,51.8 16.7,51.8 16.3,52.2 C15.9,52.6 15.9,53.2 16.3,53.6 L18.4,55.7 C18.6,55.9 18.9,56 19.1,56 C19.3,56 19.6,55.9 19.8,55.7 L22.7,52.8 C23.1,52.4 23.1,51.8 22.7,51.4 C22.3,51 21.7,51 21.3,51.4 L21.3,51.4 Z" id="Shape"></path>
                <path d="M61,7 L42.9,7 C42.5,5.3 40.9,4 39.1,4 L35.1,4 C35.1,1.8 33.3,0 31.1,0 C28.9,0 27.1,1.8 27.1,4 L23.1,4 C21.3,4 19.7,5.3 19.3,7 L1,7 C0.4,7 0,7.4 0,8 L0,75 C0,75.6 0.4,76 1,76 L61,76 C61.6,76 62,75.6 62,75 L62,8 C62,7.4 61.6,7 61,7 L61,7 Z M23,6 L27,6 C28.1,6 29,5.1 29,4 C29,2.9 29.9,2 31,2 C32.1,2 33,2.9 33,4 C33,5.1 33.9,6 35,6 L39,6 C40.1,6 41,6.9 41,8 C41,9.1 40.1,10 39,10 L23,10 C21.9,10 21,9.1 21,8 C21,6.9 21.9,6 23,6 L23,6 Z M60,74 L2,74 L2,9 L19.1,9 C19.5,10.7 21.1,12 22.9,12 L39,12 C40.8,12 42.4,10.7 42.8,9 L60,9 L60,74 L60,74 Z" id="Shape"></path>
            </g>
        </g>
    </g>
</svg>