<?xml version="1.0" encoding="UTF-8"?>
<svg width="62px" height="70px" viewBox="0 0 62 70" version="1.1" xmlns="http://www.w3.org/2000/svg" xmlns:xlink="http://www.w3.org/1999/xlink">
    <!-- Generator: Sketch 40.3 (33839) - http://www.bohemiancoding.com/sketch -->
    <title>sertification</title>
    <desc>Created with Sketch.</desc>
    <defs></defs>
    <g id="Page-1" stroke="none" stroke-width="1" fill="none" fill-rule="evenodd">
        <g id="Artboard-3" transform="translate(-478.000000, -717.000000)" fill="#003554">
            <g id="sertification" transform="translate(478.000000, 717.000000)">
                <path d="M61,5 L57,5 L57,1 C57,0.4 56.6,0 56,0 L1,0 C0.4,0 0,0.4 0,1 L0,64 C0,64.6 0.4,65 1,65 L5,65 L5,69 C5,69.6 5.4,70 6,70 L61,70 C61.6,70 62,69.6 62,69 L62,6 C62,5.4 61.6,5 61,5 L61,5 Z M5,6 L5,63 L2,63 L2,2 L55,2 L55,5 L6,5 C5.4,5 5,5.4 5,6 L5,6 Z M60,68 L7,68 L7,7 L60,7 L60,68 L60,68 Z" id="Shape"></path>
                <rect id="Rectangle-path" x="19" y="21" width="29" height="1"></rect>
                <rect id="Rectangle-path" x="19" y="24" width="29" height="1"></rect>
                <rect id="Rectangle-path" x="19" y="27" width="29" height="1"></rect>
                <rect id="Rectangle-path" x="19" y="30" width="29" height="1"></rect>
                <rect id="Rectangle-path" x="19" y="33" width="29" height="1"></rect>
                <rect id="Rectangle-path" x="29" y="17" width="9" height="1"></rect>
                <rect id="Rectangle-path" x="19" y="47" width="11" height="1"></rect>
                <rect id="Rectangle-path" x="22" y="49" width="8" height="1"></rect>
                <path d="M40,41 C35.6,41 32,44.6 32,49 C32,53.4 35.6,57 40,57 C44.4,57 48,53.4 48,49 C48,44.6 44.4,41 40,41 L40,41 Z M40,55 C36.7,55 34,52.3 34,49 C34,45.7 36.7,43 40,43 C43.3,43 46,45.7 46,49 C46,52.3 43.3,55 40,55 L40,55 Z" id="Shape"></path>
                <path d="M40,45 C37.8,45 36,46.8 36,49 C36,51.2 37.8,53 40,53 C42.2,53 44,51.2 44,49 C44,46.8 42.2,45 40,45 L40,45 Z M40,52 C38.3,52 37,50.7 37,49 C37,47.3 38.3,46 40,46 C41.7,46 43,47.3 43,49 C43,50.7 41.7,52 40,52 L40,52 Z" id="Shape"></path>
                <path d="M10,66 L57,66 C57.6,66 58,65.6 58,65 L58,10 C58,9.4 57.6,9 57,9 L10,9 C9.4,9 9,9.4 9,10 L9,65 C9,65.6 9.4,66 10,66 L10,66 Z M55,12 L55,63 L12,63 L12,12 L55,12 L55,12 Z M56,63 L56,62 L57,62 L57,63 L56,63 L56,63 Z M56,61 L56,60 L57,60 L57,61 L56,61 L56,61 Z M56,59 L56,58 L57,58 L57,59 L56,59 L56,59 Z M56,57 L56,56 L57,56 L57,57 L56,57 L56,57 Z M56,55 L56,54 L57,54 L57,55 L56,55 L56,55 Z M56,53 L56,52 L57,52 L57,53 L56,53 L56,53 Z M56,51 L56,50 L57,50 L57,51 L56,51 L56,51 Z M56,49 L56,48 L57,48 L57,49 L56,49 L56,49 Z M56,47 L56,46 L57,46 L57,47 L56,47 L56,47 Z M56,45 L56,44 L57,44 L57,45 L56,45 L56,45 Z M56,43 L56,42 L57,42 L57,43 L56,43 L56,43 Z M56,41 L56,40 L57,40 L57,41 L56,41 L56,41 Z M56,39 L56,38 L57,38 L57,39 L56,39 L56,39 Z M56,37 L56,36 L57,36 L57,37 L56,37 L56,37 Z M56,35 L56,34 L57,34 L57,35 L56,35 L56,35 Z M56,33 L56,32 L57,32 L57,33 L56,33 L56,33 Z M56,31 L56,30 L57,30 L57,31 L56,31 L56,31 Z M56,29 L56,28 L57,28 L57,29 L56,29 L56,29 Z M56,27 L56,26 L57,26 L57,27 L56,27 L56,27 Z M56,25 L56,24 L57,24 L57,25 L56,25 L56,25 Z M56,23 L56,22 L57,22 L57,23 L56,23 L56,23 Z M56,21 L56,20 L57,20 L57,21 L56,21 L56,21 Z M56,19 L56,18 L57,18 L57,19 L56,19 L56,19 Z M56,17 L56,16 L57,16 L57,17 L56,17 L56,17 Z M56,15 L56,14 L57,14 L57,15 L56,15 L56,15 Z M56,13 L56,12 L57,12 L57,13 L56,13 L56,13 Z M55,64 L55,65 L54,65 L54,64 L55,64 L55,64 L55,64 Z M15,64 L15,65 L14,65 L14,64 L15,64 L15,64 Z M16,64 L17,64 L17,65 L16,65 L16,64 L16,64 Z M18,64 L19,64 L19,65 L18,65 L18,64 L18,64 Z M20,64 L21,64 L21,65 L20,65 L20,64 L20,64 Z M22,64 L23,64 L23,65 L22,65 L22,64 L22,64 Z M24,64 L25,64 L25,65 L24,65 L24,64 L24,64 Z M26,64 L27,64 L27,65 L26,65 L26,64 L26,64 Z M28,64 L29,64 L29,65 L28,65 L28,64 L28,64 Z M30,64 L31,64 L31,65 L30,65 L30,64 L30,64 Z M32,64 L33,64 L33,65 L32,65 L32,64 L32,64 Z M34,64 L35,64 L35,65 L34,65 L34,64 L34,64 Z M36,64 L37,64 L37,65 L36,65 L36,64 L36,64 Z M38,64 L39,64 L39,65 L38,65 L38,64 L38,64 Z M40,64 L41,64 L41,65 L40,65 L40,64 L40,64 Z M42,64 L43,64 L43,65 L42,65 L42,64 L42,64 Z M44,64 L45,64 L45,65 L44,65 L44,64 L44,64 Z M46,64 L47,64 L47,65 L46,65 L46,64 L46,64 Z M48,64 L49,64 L49,65 L48,65 L48,64 L48,64 Z M50,64 L51,64 L51,65 L50,65 L50,64 L50,64 Z M52,64 L53,64 L53,65 L52,65 L52,64 L52,64 Z M12,64 L13,64 L13,65 L12,65 L12,64 L12,64 Z M56,65 L56,64 L57,64 L57,65 L56,65 L56,65 Z M10,10 L57,10 L57,11 L56,11 L56,10 L55,10 L55,11 L55,11 L54,11 L54,10 L53,10 L53,11 L52,11 L52,10 L51,10 L51,11 L50,11 L50,10 L49,10 L49,11 L48,11 L48,10 L47,10 L47,11 L46,11 L46,10 L45,10 L45,11 L44,11 L44,10 L43,10 L43,11 L42,11 L42,10 L41,10 L41,11 L40,11 L40,10 L39,10 L39,11 L38,11 L38,10 L37,10 L37,11 L36,11 L36,10 L35,10 L35,11 L34,11 L34,10 L33,10 L33,11 L32,11 L32,10 L31,10 L31,11 L30,11 L30,10 L29,10 L29,11 L28,11 L28,10 L27,10 L27,11 L26,11 L26,10 L25,10 L25,11 L24,11 L24,10 L23,10 L23,11 L22,11 L22,10 L21,10 L21,11 L20,11 L20,10 L19,10 L19,11 L18,11 L18,10 L17,10 L17,11 L16,11 L16,10 L15,10 L15,11 L14,11 L14,10 L13,10 L13,11 L12,11 L12,10 L11,10 L11,11 L10,11 L10,10 L10,10 Z M10,12 L11,12 L11,13 L10,13 L10,12 L10,12 Z M10,14 L11,14 L11,15 L10,15 L10,14 L10,14 Z M10,16 L11,16 L11,17 L10,17 L10,16 L10,16 Z M10,18 L11,18 L11,19 L10,19 L10,18 L10,18 Z M10,20 L11,20 L11,21 L10,21 L10,20 L10,20 Z M10,22 L11,22 L11,23 L10,23 L10,22 L10,22 Z M10,24 L11,24 L11,25 L10,25 L10,24 L10,24 Z M10,26 L11,26 L11,27 L10,27 L10,26 L10,26 Z M10,28 L11,28 L11,29 L10,29 L10,28 L10,28 Z M10,30 L11,30 L11,31 L10,31 L10,30 L10,30 Z M10,32 L11,32 L11,33 L10,33 L10,32 L10,32 Z M10,34 L11,34 L11,35 L10,35 L10,34 L10,34 Z M10,36 L11,36 L11,37 L10,37 L10,36 L10,36 Z M10,38 L11,38 L11,39 L10,39 L10,38 L10,38 Z M10,40 L11,40 L11,41 L10,41 L10,40 L10,40 Z M10,42 L11,42 L11,43 L10,43 L10,42 L10,42 Z M10,44 L11,44 L11,45 L10,45 L10,44 L10,44 Z M10,46 L11,46 L11,47 L10,47 L10,46 L10,46 Z M10,48 L11,48 L11,49 L10,49 L10,48 L10,48 Z M10,50 L11,50 L11,51 L10,51 L10,50 L10,50 Z M10,52 L11,52 L11,53 L10,53 L10,52 L10,52 Z M10,54 L11,54 L11,55 L10,55 L10,54 L10,54 Z M10,56 L11,56 L11,57 L10,57 L10,56 L10,56 Z M10,58 L11,58 L11,59 L10,59 L10,58 L10,58 Z M10,60 L11,60 L11,61 L10,61 L10,60 L10,60 Z M10,62 L11,62 L11,63 L10,63 L10,62 L10,62 Z M10,64 L11,64 L11,65 L10,65 L10,64 L10,64 Z" id="Shape"></path>
            </g>
        </g>
    </g>
</svg>