<?xml version="1.0" encoding="UTF-8"?>
<svg width="74px" height="57px" viewBox="0 0 74 57" version="1.1" xmlns="http://www.w3.org/2000/svg" xmlns:xlink="http://www.w3.org/1999/xlink">
    <!-- Generator: Sketch 40.3 (33839) - http://www.bohemiancoding.com/sketch -->
    <title>size</title>
    <desc>Created with Sketch.</desc>
    <defs></defs>
    <g id="Page-1" stroke="none" stroke-width="1" fill="none" fill-rule="evenodd">
        <g id="Artboard-3" transform="translate(-274.000000, -852.000000)" fill="#1778A7">
            <g id="size" transform="translate(274.000000, 852.264000)">
                <path d="M73.4,41 C73.8,40.6 74,40.1 74,39.6 L74,31 C74,28.8 72.2,27 70,27 L60,27 L60,24.4 C60,23.9 59.8,23.4 59.4,23 L59,22.6 L59,22.4 L59.4,22 C59.8,21.6 60,21.1 60,20.6 L60,4 C60,1.8 58.2,1.13686838e-13 56,1.13686838e-13 L35.4,1.13686838e-13 C34.9,1.13686838e-13 34.4,0.2 34,0.6 L33.6,1 L33.4,1 L33,0.6 C32.6,0.2 32.1,1.13686838e-13 31.6,1.13686838e-13 L11,1.13686838e-13 C8.8,1.13686838e-13 7,1.8 7,4 L7,20.6 C7,21.1 7.2,21.6 7.6,22 L8,22.4 L8,22.6 L7.6,23 C7.2,23.4 7,23.9 7,24.4 L7,35 L4,35 C1.8,35 0,36.8 0,39 L0,43.6 C0,44.1 0.2,44.6 0.6,45 L1,45.4 L1,45.6 L0.6,46 C0.2,46.4 0,46.9 0,47.4 L0,52 C0,54.2 1.8,56 4,56 L10.6,56 C11.1,56 11.6,55.8 12,55.4 L12.4,55 L12.6,55 L13,55.4 C13.4,55.8 13.9,56 14.4,56 L21,56 C23.2,56 25,54.2 25,52 L25,47.4 C25,46.9 24.8,46.4 24.4,46 L24,45.6 L24,45.4 L24.4,45 L31.6,45 C32.1,45 32.6,44.8 33,44.4 L33.4,44 L33.6,44 L34,44.4 C34.4,44.8 34.9,45 35.4,45 L41,45 L41,52 C41,54.2 42.8,56 45,56 L55.6,56 C56.1,56 56.6,55.8 57,55.4 L57.4,55 L57.6,55 L58,55.4 C58.4,55.8 58.9,56 59.4,56 L70,56 C72.2,56 74,54.2 74,52 L74,43.4 C74,42.9 73.8,42.4 73.4,42 L73,41.6 L73,41.4 L73.4,41 L73.4,41 Z M34.7,2.7 L35.4,2 L56,2 C57.1,2 58,2.9 58,4 L58,20.6 L57.3,21.3 C57.1,21.5 57,21.7 57,22 L34,22 L34,3 L34,3 C34.3,3 34.5,2.9 34.7,2.7 L34.7,2.7 Z M9,4 C9,2.9 9.9,2 11,2 L31.6,2 L32.3,2.7 C32.5,2.9 32.7,3 33,3 L33,3 L33,22 L10,22 C10,21.7 9.9,21.5 9.7,21.3 L9,20.6 L9,4 L9,4 Z M2,39 C2,37.9 2.9,37 4,37 L10.6,37 L11.3,37.7 C11.5,37.9 11.7,38 12,38 L12,38 L12,45 L3,45 C3,44.7 2.9,44.5 2.7,44.3 L2,43.6 L2,39 L2,39 Z M23,43.6 L22.3,44.3 C22.1,44.5 22,44.7 22,45 L13,45 L13,38 L13,38 C13.3,38 13.5,37.9 13.7,37.7 L14.4,37 L21,37 C22.1,37 23,37.9 23,39 L23,43.6 L23,43.6 Z M11.3,53.3 L10.6,54 L4,54 C2.9,54 2,53.1 2,52 L2,47.4 L2.7,46.7 C2.9,46.5 3,46.3 3,46 L12,46 L12,53 L12,53 C11.7,53 11.5,53.1 11.3,53.3 L11.3,53.3 Z M23,52 C23,53.1 22.1,54 21,54 L14.4,54 L13.7,53.3 C13.5,53.1 13.3,53 13,53 L13,53 L13,46 L22,46 C22,46.3 22.1,46.5 22.3,46.7 L23,47.4 L23,52 L23,52 Z M33,42 C32.7,42 32.5,42.1 32.3,42.3 L31.6,43 L25,43 L25,39 C25,36.8 23.2,35 21,35 L14.4,35 C13.9,35 13.4,35.2 13,35.6 L12.6,36 L12.4,36 L12,35.6 C11.6,35.2 11.1,35 10.6,35 L9,35 L9,24.4 L9.7,23.7 C9.9,23.5 10,23.3 10,23 L33,23 L33,42 L33,42 L33,42 Z M41,31 L41,39.6 C41,40.1 41.2,40.6 41.6,41 L42,41.4 L42,41.6 L41.6,42 C41.3,42.3 41.1,42.6 41.1,43 L35.5,43 L34.8,42.3 C34.5,42.1 34.3,42 34,42 L34,42 L34,23 L57,23 C57,23.3 57.1,23.5 57.3,23.7 L58,24.4 L58,27.6 L57.6,28 L57.4,28 L57,27.6 C56.6,27.2 56.1,27 55.6,27 L45,27 C42.8,27 41,28.8 41,31 L41,31 Z M57,30 L57,41 L44,41 C44,40.7 43.9,40.5 43.7,40.3 L43,39.6 L43,31 C43,29.9 43.9,29 45,29 L55.6,29 L56.3,29.7 C56.5,29.9 56.7,30 57,30 L57,30 L57,30 Z M56.3,53.3 L55.6,54 L45,54 C43.9,54 43,53.1 43,52 L43,43.4 L43.7,42.7 C43.9,42.5 44,42.3 44,42 L57,42 L57,53 L57,53 C56.7,53 56.5,53.1 56.3,53.3 L56.3,53.3 Z M72,52 C72,53.1 71.1,54 70,54 L59.4,54 L58.7,53.3 C58.5,53.1 58.3,53 58,53 L58,53 L58,42 L71,42 C71,42.3 71.1,42.5 71.3,42.7 L72,43.4 L72,52 L72,52 Z M72,39.6 L71.3,40.3 C71.1,40.5 71,40.7 71,41 L58,41 L58,30 L58,30 C58.3,30 58.5,29.9 58.7,29.7 L59.4,29 L70,29 C71.1,29 72,29.9 72,31 L72,39.6 L72,39.6 Z" id="Shape"></path>
            </g>
        </g>
    </g>
</svg>