<?xml version="1.0" encoding="UTF-8"?>
<svg width="59px" height="68px" viewBox="0 0 59 68" version="1.1" xmlns="http://www.w3.org/2000/svg" xmlns:xlink="http://www.w3.org/1999/xlink">
    <!-- Generator: Sketch 40.3 (33839) - http://www.bohemiancoding.com/sketch -->
    <title>strahovka</title>
    <desc>Created with Sketch.</desc>
    <defs></defs>
    <g id="Page-1" stroke="none" stroke-width="1" fill="none" fill-rule="evenodd">
        <g id="Artboard-3" transform="translate(-282.000000, -822.000000)" fill="#003554">
            <g id="strahovka" transform="translate(282.000000, 822.000000)">
                <path d="M57.1,16 L54.8,15.8 C51.6,15.8 49,13.1 49,10 L49,4.8 C49,3.8 48.3,3.1 47.4,2.9 L29.7,0 L29.4,0 L11.6,2.9 C10.6,3.1 10,3.8 10,4.8 L10,10 C10,13.2 7.4,15.8 4.1,15.8 L1.9,16 C0.9,16.1 0,17 0,18 L0,19.9 C0,39.2 10.2,57 26.6,66.5 L29,67.9 C29.2,68 29.3,68 29.5,68 C29.7,68 29.8,68 30,67.9 L32.4,66.5 C48.8,57 59,39.2 59,19.9 L59,18 C59,17 58.2,16.1 57.1,16 L57.1,16 Z M53.4,21.1 C53,37.7 44.1,53.1 30,61.4 L30,5.7 L43.7,8.1 L43.7,10.2 C43.7,15.8 47.8,20.3 53.4,21.1 L53.4,21.1 Z M29,61.4 C14.9,53.1 6,37.7 5.6,21.1 C11.3,20.3 15.3,15.8 15.3,10.2 L15.3,8.1 L29,5.7 L29,61.4 L29,61.4 Z M27.6,64.8 C12.1,55.8 2,38.2 2,19.9 L2,18 L4.2,17.8 C8.5,17.8 12,14.3 12,10 L12,4.9 L29,2.1 L29,4.7 L14.3,7.3 L14.3,10.3 C14.3,15.5 10.4,19.6 5,20.2 L4.5,20.2 L4.5,20.7 C4.8,38 14.2,54 28.9,62.5 L29,62.5 L29,65.5 L27.6,64.8 L27.6,64.8 Z M57,19.9 C57,38.2 46.9,55.8 31.4,64.8 L30,65.6 L30,62.6 L30.1,62.6 C44.8,54 54.2,38 54.4,20.7 L54.4,20.2 L53.9,20.2 C48.5,19.6 44.6,15.4 44.6,10.3 L44.6,7.3 L30,4.7 L30,2.1 L47,4.9 L47,10.1 C47,14.4 50.5,17.9 54.7,17.9 L54.7,17.9 L57,18 L57,19.9 L57,19.9 Z" id="Shape"></path>
            </g>
        </g>
    </g>
</svg>