<?xml version="1.0" encoding="UTF-8"?>
<svg width="329px" height="51px" viewBox="0 0 329 51" version="1.1" xmlns="http://www.w3.org/2000/svg" xmlns:xlink="http://www.w3.org/1999/xlink">
    <!-- Generator: Sketch 40.3 (33839) - http://www.bohemiancoding.com/sketch -->
    <title>swiftcargologo</title>
    <desc>Created with Sketch.</desc>
    <defs>
        <polygon id="path-1" points="60.563 48.676 60.563 0.752 30.6987 0.752 0.8344 0.752 0.8344 48.676 60.563 48.676"></polygon>
    </defs>
    <g id="Page-1" stroke="none" stroke-width="1" fill="none" fill-rule="evenodd">
        <g id="Desktop-HD" transform="translate(-678.000000, -1171.000000)">
            <g id="swiftcargologo" transform="translate(672.000000, 1162.000000)">
                <rect id="Rectangle-3" x="0" y="0" width="340" height="67"></rect>
                <path d="M106.021484,37.4833984 L102.813477,37.4833984 L102.256836,34.5537109 C101.88574,34.3193348 101.343754,34.1142587 100.630859,33.9384766 C99.9179652,33.7626944 99.1611368,33.6748047 98.3603516,33.6748047 C97.1884707,33.6748047 96.282718,33.9213843 95.6430664,34.4145508 C95.0034148,34.9077173 94.6835938,35.544918 94.6835938,36.3261719 C94.6835938,37.0488317 95.0180631,37.6420875 95.6870117,38.105957 C96.3559604,38.5698265 97.510734,39.0605443 99.1513672,39.578125 C101.504895,40.2324251 103.289545,41.0966743 104.505371,42.1708984 C105.721197,43.2451226 106.329102,44.6562413 106.329102,46.4042969 C106.329102,48.2304779 105.606453,49.6708932 104.161133,50.7255859 C102.715813,51.7802787 100.811535,52.3076172 98.4482422,52.3076172 C96.7587806,52.3076172 95.232917,52.0390652 93.8706055,51.5019531 C92.508294,50.9648411 91.3730514,50.222661 90.4648438,49.2753906 L90.4648438,44.8222656 L93.7753906,44.8222656 L94.2294922,47.8544922 C94.6591818,48.2060564 95.2426721,48.4965809 95.9799805,48.7260742 C96.7172888,48.9555676 97.5400345,49.0703125 98.4482422,49.0703125 C99.620123,49.0703125 100.511227,48.8310571 101.121582,48.3525391 C101.731937,47.874021 102.037109,47.234379 102.037109,46.4335938 C102.037109,45.6132771 101.746585,44.9541041 101.165527,44.4560547 C100.58447,43.9580053 99.5664135,43.48926 98.1113281,43.0498047 C95.5820186,42.3173792 93.6679752,41.4482472 92.3691406,40.4423828 C91.070306,39.4365184 90.4208984,38.0595791 90.4208984,36.3115234 C90.4208984,34.5829992 91.153313,33.1694391 92.6181641,32.0708008 C94.0830151,30.9721625 95.923817,30.4082033 98.140625,30.3789062 C99.7812582,30.3789062 101.275384,30.6279272 102.623047,31.1259766 C103.97071,31.6240259 105.103511,32.2880818 106.021484,33.1181641 L106.021484,37.4833984 Z M139.640625,33.25 L137.882812,33.4697266 L133.561523,52 L129.591797,52 L125.680664,37.9228516 L125.592773,37.9228516 L121.681641,52 L117.711914,52 L113.361328,33.4697266 L111.618164,33.25 L111.618164,30.671875 L119.469727,30.671875 L119.469727,33.25 L117.521484,33.5869141 L119.967773,45.2763672 L120.055664,45.2910156 L124.054688,30.671875 L127.204102,30.671875 L131.232422,45.2910156 L131.320312,45.2763672 L133.751953,33.5869141 L131.803711,33.25 L131.803711,30.671875 L139.640625,30.671875 L139.640625,33.25 Z M144.885742,33.25 L144.885742,30.671875 L153.71875,30.671875 L153.71875,33.25 L151.433594,33.6894531 L151.433594,48.9970703 L153.71875,49.4365234 L153.71875,52 L144.885742,52 L144.885742,49.4365234 L147.170898,48.9970703 L147.170898,33.6894531 L144.885742,33.25 Z M159.344727,49.4365234 L161.615234,48.9970703 L161.615234,33.6894531 L159.344727,33.25 L159.344727,30.671875 L176.322266,30.671875 L176.322266,36.5166016 L173.041016,36.5166016 L172.850586,33.9677734 L165.892578,33.9677734 L165.892578,39.8417969 L173.363281,39.8417969 L173.363281,43.1376953 L165.892578,43.1376953 L165.892578,48.9970703 L168.177734,49.4365234 L168.177734,52 L159.344727,52 L159.344727,49.4365234 Z M200.947266,30.671875 L200.947266,36.3554688 L197.666016,36.3554688 L197.490234,33.9677734 L193.564453,33.9677734 L193.564453,48.9970703 L195.849609,49.4365234 L195.849609,52 L187.001953,52 L187.001953,49.4365234 L189.287109,48.9970703 L189.287109,33.9677734 L185.375977,33.9677734 L185.200195,36.3554688 L181.933594,36.3554688 L181.933594,30.671875 L200.947266,30.671875 Z M235.167969,37.8642578 L231.989258,37.8642578 L231.549805,35.0224609 C231.129881,34.602537 230.600101,34.270509 229.960449,34.0263672 C229.320798,33.7822253 228.566411,33.6601562 227.697266,33.6601562 C225.841788,33.6601562 224.413579,34.3339776 223.412598,35.6816406 C222.411616,37.0293036 221.911133,38.7870985 221.911133,40.9550781 L221.911133,41.7021484 C221.911133,43.870128 222.409175,45.6328057 223.405273,46.9902344 C224.401372,48.347663 225.807608,49.0263672 227.624023,49.0263672 C228.463871,49.0263672 229.232907,48.9042981 229.931152,48.6601562 C230.629398,48.4160144 231.168943,48.0839865 231.549805,47.6640625 L231.989258,44.8222656 L235.167969,44.8222656 L235.167969,49.0410156 C234.308589,50.0371144 233.212409,50.8305635 231.879395,51.4213867 C230.54638,52.01221 229.054696,52.3076172 227.404297,52.3076172 C224.542954,52.3076172 222.199228,51.3164162 220.373047,49.3339844 C218.546866,47.3515526 217.633789,44.8076327 217.633789,41.7021484 L217.633789,40.984375 C217.633789,37.8886564 218.541983,35.3447365 220.358398,33.3525391 C222.174814,31.3603416 224.523423,30.3642578 227.404297,30.3642578 C229.054696,30.3642578 230.543939,30.6645478 231.87207,31.2651367 C233.200202,31.8657257 234.298824,32.6591748 235.167969,33.6455078 L235.167969,37.8642578 Z M240.911133,49.4365234 L242.43457,49.2167969 L248.923828,30.671875 L253.303711,30.671875 L259.749023,49.2167969 L261.272461,49.4365234 L261.272461,52 L254.006836,52 L254.006836,49.4365234 L255.486328,49.1728516 L254.548828,46.2431641 L247.634766,46.2431641 L246.697266,49.1728516 L248.176758,49.4365234 L248.176758,52 L240.911133,52 L240.911133,49.4365234 Z M248.645508,43.09375 L253.538086,43.09375 L251.135742,35.5791016 L251.047852,35.5791016 L248.645508,43.09375 Z M276.258789,30.671875 C278.680676,30.671875 280.580071,31.2260687 281.957031,32.3344727 C283.333991,33.4428766 284.022461,34.973623 284.022461,36.9267578 C284.022461,38.0009819 283.734378,38.9335898 283.158203,39.7246094 C282.582028,40.515629 281.73731,41.155271 280.624023,41.6435547 C281.883795,42.0146503 282.789548,42.6323199 283.341309,43.496582 C283.893069,44.3608442 284.168945,45.4326108 284.168945,46.7119141 L284.168945,47.7958984 C284.168945,48.2646508 284.261718,48.6284167 284.447266,48.887207 C284.632813,49.1459974 284.940428,49.2998044 285.370117,49.3486328 L285.897461,49.421875 L285.897461,52 L283.685547,52 C282.289056,52 281.30762,51.6240272 280.741211,50.8720703 C280.174802,50.1201134 279.891602,49.1484435 279.891602,47.9570312 L279.891602,46.7412109 C279.891602,45.7060495 279.615725,44.8930694 279.063965,44.3022461 C278.512204,43.7114228 277.733403,43.4013673 276.727539,43.3720703 L273.226562,43.3720703 L273.226562,48.9970703 L275.511719,49.4365234 L275.511719,52 L266.678711,52 L266.678711,49.4365234 L268.949219,48.9970703 L268.949219,33.6894531 L266.678711,33.25 L266.678711,30.671875 L268.949219,30.671875 L276.258789,30.671875 Z M273.226562,40.0761719 L276.185547,40.0761719 C277.376959,40.0761719 278.270505,39.8222682 278.866211,39.3144531 C279.461917,38.8066381 279.759766,38.0742235 279.759766,37.1171875 C279.759766,36.1601515 279.464358,35.395999 278.873535,34.824707 C278.282712,34.2534151 277.411139,33.9677734 276.258789,33.9677734 L273.226562,33.9677734 L273.226562,40.0761719 Z M308.984375,49.6269531 C308.291012,50.3105503 307.28028,50.9282199 305.952148,51.4799805 C304.624017,52.031741 302.944346,52.3076172 300.913086,52.3076172 C298.032212,52.3076172 295.688486,51.3432714 293.881836,49.4145508 C292.075186,47.4858302 291.171875,44.9785311 291.171875,41.8925781 L291.171875,41.1601562 C291.171875,37.9667809 292.062979,35.3691506 293.845215,33.3671875 C295.62745,31.3652244 297.954087,30.3642578 300.825195,30.3642578 C302.495126,30.3642578 304.020989,30.6303684 305.402832,31.1625977 C306.784675,31.6948269 307.934566,32.4150345 308.852539,33.3232422 L308.852539,37.6152344 L305.688477,37.6152344 L305.087891,34.7587891 C304.697264,34.4267562 304.182132,34.1606455 303.54248,33.9604492 C302.902829,33.7602529 302.167973,33.6601562 301.337891,33.6601562 C299.472647,33.6601562 298.022466,34.3486259 296.987305,35.7255859 C295.952143,37.1025459 295.43457,38.9042857 295.43457,41.1308594 L295.43457,41.8925781 C295.43457,44.0605577 295.942378,45.7914974 296.958008,47.0854492 C297.973638,48.379401 299.438467,49.0263672 301.352539,49.0263672 C302.211918,49.0263672 302.907712,48.9531257 303.439941,48.8066406 C303.972171,48.6601555 304.389647,48.4892588 304.692383,48.2939453 L304.692383,44.6757812 L301.645508,44.4414062 L301.645508,41.4384766 L308.984375,41.4384766 L308.984375,49.6269531 Z M334.620117,41.4970703 C334.620117,44.6220859 333.726571,47.2050679 331.939453,49.2460938 C330.152335,51.2871196 327.813491,52.3076172 324.922852,52.3076172 C322.041978,52.3076172 319.715341,51.2871196 317.942871,49.2460938 C316.170401,47.2050679 315.28418,44.6220859 315.28418,41.4970703 L315.28418,41.1748047 C315.28418,38.0693204 316.16796,35.4912212 317.935547,33.4404297 C319.703134,31.3896382 322.027329,30.3642578 324.908203,30.3642578 C327.798843,30.3642578 330.140128,31.3896382 331.932129,33.4404297 C333.72413,35.4912212 334.620117,38.0693204 334.620117,41.1748047 L334.620117,41.4970703 Z M330.357422,41.1455078 C330.357422,38.9384655 329.898442,37.1464913 328.980469,35.7695312 C328.062495,34.3925712 326.705087,33.7041016 324.908203,33.7041016 C323.111319,33.7041016 321.771001,34.3876885 320.887207,35.7548828 C320.003414,37.1220771 319.561523,38.9189342 319.561523,41.1455078 L319.561523,41.4970703 C319.561523,43.7431753 320.008296,45.5522392 320.901855,46.9243164 C321.795415,48.2963936 323.135733,48.9824219 324.922852,48.9824219 C326.729501,48.9824219 328.08691,48.2963936 328.995117,46.9243164 C329.903325,45.5522392 330.357422,43.7431753 330.357422,41.4970703 L330.357422,41.1455078 Z" id="SWIFT-CARGO" fill="#FFFFFF"></path>
                <g transform="translate(6.000000, 8.000000)">
                    <g id="Group-3" transform="translate(1.000000, 0.248000)">
                        <mask id="mask-2" fill="white">
                            <use xlink:href="#path-1"></use>
                        </mask>
                        <g id="Clip-2"></g>
                        <path d="M22.2954,39.55 C23.9484,39.363 25.6284,39.26 27.3284,39.243 L29.7864,6.227 L23.8304,0.752 L22.2954,39.55 Z M30.5834,39.314 C32.0794,39.398 33.5554,39.55 35.0074,39.765 L38.3054,14.057 L33.4684,9.611 L30.5834,39.314 Z M3.3244,45.877 C8.3254,42.928 13.9494,40.852 19.9554,39.874 L21.0754,0.752 L0.8344,20.14 L3.3244,45.877 Z M47.8544,22.835 L44.1124,42.046 C45.2264,42.446 46.3194,42.888 47.3894,43.366 L51.2274,25.934 L47.8544,22.835 Z M58.0794,32.232 L54.0204,47.007 C54.8254,47.54 55.6114,48.097 56.3774,48.676 L60.5634,34.516 L58.0794,32.232 Z M53.3654,27.9 L49.4704,44.36 C50.4194,44.842 51.3494,45.355 52.2564,45.898 L56.2424,30.545 L53.3654,27.9 Z M41.3264,16.833 L37.8434,40.274 C39.1414,40.546 40.4184,40.87 41.6714,41.245 L45.3314,20.515 L41.3264,16.833 Z" id="Fill-1" fill="#FFFFFF" mask="url(#mask-2)"></path>
                    </g>
                    <path d="M34.3195,45.3245 C35.6035,45.4545 36.8685,45.5335 38.1075,45.7285 C38.7275,45.8185 39.3425,45.8835 39.9485,45.9915 C40.5535,46.1085 41.1525,46.2235 41.7435,46.3375 C42.9275,46.5475 44.0665,46.9045 45.1815,47.1475 C46.2855,47.4765 47.3625,47.7555 48.3845,48.1005 C50.4285,48.7935 52.2975,49.5085 53.9455,50.2115 C54.7635,50.5795 55.5275,50.9385 56.2445,51.2455 C56.2465,51.2465 58.1285,51.2475 58.1285,51.2475 C57.6605,50.9125 57.1645,50.5575 56.6215,50.1695 C55.9385,49.7215 55.1885,49.2655 54.3895,48.7615 C53.5905,48.2555 52.7105,47.8065 51.7945,47.2815 C50.8795,46.7555 49.8785,46.3425 48.8505,45.8335 C47.8155,45.3525 46.7185,44.9315 45.5875,44.4555 C44.4435,44.0695 43.2615,43.6215 42.0305,43.2875 C39.5765,42.5405 36.9535,42.0025 34.2355,41.6265 C31.5185,41.3205 28.7055,41.1755 25.8785,41.3285 C23.1185,41.4895 20.3525,41.9025 17.6385,42.5275 C17.5755,42.5425 17.5105,42.5535 17.4475,42.5685 C14.6905,43.2815 11.9965,44.2125 9.4415,45.3695 C6.8965,46.5505 4.5035,47.9585 2.2885,49.4885 C1.5005,50.0605 0.7415,50.6505 0.0005,51.2475 L9.1275,51.2475 C14.2035,48.5205 19.1135,46.0705 26.4645,45.3805 C29.1155,45.1775 31.7525,45.1815 34.3195,45.3245 Z" id="Fill-4" fill="#FFFFFF"></path>
                </g>
            </g>
        </g>
    </g>
</svg>