<?xml version="1.0" encoding="UTF-8"?>
<svg width="88px" height="52px" viewBox="0 0 88 52" version="1.1" xmlns="http://www.w3.org/2000/svg" xmlns:xlink="http://www.w3.org/1999/xlink">
    <!-- Generator: Sketch 40.3 (33839) - http://www.bohemiancoding.com/sketch -->
    <title>ved</title>
    <desc>Created with Sketch.</desc>
    <defs></defs>
    <g id="Page-1" stroke="none" stroke-width="1" fill="none" fill-rule="evenodd">
        <g id="Artboard-3" transform="translate(-612.000000, -864.000000)" fill="#003554">
            <g id="ved" transform="translate(612.000000, 864.000000)">
                <path d="M80,25 L64,25 C59.6,25 56,28.6 56,33 L56,50 C56,51.1 56.9,52 58,52 L86,52 C87.1,52 88,51.1 88,50 L88,33 C88,28.6 84.4,25 80,25 L80,25 Z M74,27 L72,29 L70,27 L74,27 L74,27 Z M74,32 L74,46 L72,48 L70,46 L70,32 L72,30 L74,32 L74,32 Z M86,50 L82,50 L82,35 L81,35 L81,50 L63,50 L63,35 L62,35 L62,50 L58,50 L58,33 C58,29.7 60.7,27 64,27 L68.6,27 L71.1,29.5 L69.3,31.3 C69.1,31.5 69,31.7 69,32 L69,46 C69,46.3 69.1,46.5 69.3,46.7 L71.3,48.7 C71.5,48.9 71.8,49 72,49 C72.2,49 72.5,48.9 72.7,48.7 L74.7,46.7 C74.9,46.5 75,46.3 75,46 L75,32 C75,31.7 74.9,31.5 74.7,31.3 L72.9,29.5 L75.4,27 L80,27 C83.3,27 86,29.7 86,33 L86,50 L86,50 Z" id="Shape"></path>
                <path d="M72,20 C77.5,20 82,15.5 82,10 C82,4.5 77.5,0 72,0 C66.5,0 62,4.5 62,10 C62,15.5 66.5,20 72,20 L72,20 Z M72,2 C76.4,2 80,5.6 80,10 C80,14.4 76.4,18 72,18 C67.6,18 64,14.4 64,10 C64,5.6 67.6,2 72,2 L72,2 Z" id="Shape"></path>
                <path d="M33,30.6 L29,28.4 L29,5 C29,3.9 28.1,3 27,3 L24,3 C22.9,3 22,3.9 22,5 L22,24.5 L18,22.3 C17.7,22.1 17.4,22 17,22 C16.6,22 16.3,22.1 16,22.3 L12,24.5 L12,14 C12,12.9 11.1,12 10,12 L7,12 C5.9,12 5,12.9 5,14 L5,28.4 L1,30.6 C0.4,31 0,31.6 0,32.3 L0,50 C0,51.1 0.9,52 2,52 L32,52 C33.1,52 34,51.1 34,50 L34,32.3 C34,31.6 33.6,30.9 33,30.6 L33,30.6 Z M24,5 L27,5 L27,27.3 L24,25.6 L24,5 L24,5 Z M7,14 L10,14 L10,25.6 L7,27.3 L7,14 L7,14 Z M19,50 L15,50 L15,43 L19,43 L19,50 L19,50 Z M32,50 L20,50 L20,43 C20,42.4 19.6,42 19,42 L15,42 C14.4,42 14,42.4 14,43 L14,50 L2,50 L2,32.3 L17,24 L32,32.3 L32,50 L32,50 Z" id="Shape"></path>
                <path d="M10,34 L6,34 C5.4,34 5,34.4 5,35 L5,39 C5,39.6 5.4,40 6,40 L10,40 C10.6,40 11,39.6 11,39 L11,35 C11,34.4 10.6,34 10,34 L10,34 Z M10,39 L6,39 L6,35 L10,35 L10,39 L10,39 Z" id="Shape"></path>
                <path d="M14,35 L14,39 C14,39.6 14.4,40 15,40 L19,40 C19.6,40 20,39.6 20,39 L20,35 C20,34.4 19.6,34 19,34 L15,34 C14.4,34 14,34.4 14,35 L14,35 Z M19,39 L15,39 L15,35 L19,35 L19,39 L19,39 Z" id="Shape"></path>
                <path d="M24,40 L28,40 C28.6,40 29,39.6 29,39 L29,35 C29,34.4 28.6,34 28,34 L24,34 C23.4,34 23,34.4 23,35 L23,39 C23,39.6 23.4,40 24,40 L24,40 Z M24,35 L28,35 L28,39 L24,39 L24,35 L24,35 Z" id="Shape"></path>
                <path d="M10,42 L6,42 C5.4,42 5,42.4 5,43 L5,47 C5,47.6 5.4,48 6,48 L10,48 C10.6,48 11,47.6 11,47 L11,43 C11,42.4 10.6,42 10,42 L10,42 Z M10,47 L6,47 L6,43 L10,43 L10,47 L10,47 Z" id="Shape"></path>
                <path d="M24,48 L28,48 C28.6,48 29,47.6 29,47 L29,43 C29,42.4 28.6,42 28,42 L24,42 C23.4,42 23,42.4 23,43 L23,47 C23,47.6 23.4,48 24,48 L24,48 Z M24,43 L28,43 L28,47 L24,47 L24,43 L24,43 Z" id="Shape"></path>
                <path d="M47.3,28.5 C47,28.2 46.5,28 46,28 C45.7,28 45.4,28.1 45.2,28.2 C44.5,28.5 44,29.2 44,30 L44,31 L39,31 C37.9,31 37,31.9 37,33 L37,36 C37,37.1 37.9,38 39,38 L44,38 L44,39 C44,39.8 44.5,40.5 45.2,40.8 C45.5,40.9 45.7,41 46,41 C46.5,41 47,40.8 47.3,40.5 L52.3,36 C52.7,35.6 53,35.1 53,34.5 C53,33.9 52.8,33.4 52.3,33 L47.3,28.5 L47.3,28.5 Z M46,39 L46,36 L39,36 L39,33 L46,33 L46,30 L51,34.5 L46,39 L46,39 Z" id="Shape"></path>
                <path d="M42,23 C42.3,23 42.6,22.9 42.8,22.8 C43.5,22.5 44,21.8 44,21 L44,20 L49,20 C50.1,20 51,19.1 51,18 L51,15 C51,13.9 50.1,13 49,13 L44,13 L44,12 C44,11.2 43.5,10.5 42.8,10.2 C42.6,10.1 42.3,10 42,10 C41.5,10 41,10.2 40.7,10.5 L35.7,15 C35.3,15.4 35,15.9 35,16.5 C35,17.1 35.2,17.6 35.7,18 L40.7,22.5 C41,22.8 41.5,23 42,23 L42,23 Z M42,12 L42,15 L49,15 L49,18 L42,18 L42,21 L37,16.5 L42,12 L42,12 Z" id="Shape"></path>
            </g>
        </g>
    </g>
</svg>