<?xml version="1.0" encoding="UTF-8"?>
<svg width="64px" height="70px" viewBox="0 0 64 70" version="1.1" xmlns="http://www.w3.org/2000/svg" xmlns:xlink="http://www.w3.org/1999/xlink">
    <!-- Generator: Sketch 40.3 (33839) - http://www.bohemiancoding.com/sketch -->
    <title>wointermediaries</title>
    <desc>Created with Sketch.</desc>
    <defs></defs>
    <g id="Page-1" stroke="none" stroke-width="1" fill="none" fill-rule="evenodd">
        <g id="Artboard-3" transform="translate(-672.000000, -411.000000)" fill="#1778A7">
            <g id="wointermediaries" transform="translate(672.000000, 411.000000)">
                <path d="M6,13 C9.3,13 12,10.3 12,7 L15,7 C15.5,7 16,6.6 16,6 C16,5.4 15.6,5 15,5 L12,5 L12,4 C12,1.8 10.2,0 8,0 L4,0 C1.8,0 0,1.8 0,4 L0,7 C0,10.3 2.7,13 6,13 L6,13 Z M2,4 C2,2.9 2.9,2 4,2 L8,2 C9.1,2 10,2.9 10,4 L10,5 L2,5 L2,4 L2,4 Z M10,7 C10,9.2 8.2,11 6,11 C3.8,11 2,9.2 2,7 L10,7 L10,7 Z" id="Shape"></path>
                <path d="M34,26 L30.4,26 C29.9,26 29.4,26.2 29,26.6 L28.6,27 L28.4,27 L28,26.6 C27.6,26.2 27.1,26 26.6,26 L23,26 C21.1,26 19.6,27.3 19.1,29 L13.8,20.7 C13.2,17.5 10.4,15 7,15 L6.9,15 C3.1,15 0,18.1 0,22 L0,69 C0,69.6 0.4,70 1,70 L12,70 C12.6,70 13,69.5 13,69 C13,66.8 11.2,65 9,65 L8.9,65 L14,40.2 L14,33.6 L18.6,39.8 C18.8,40.1 19,40.3 19.3,40.5 C19.9,42 21.3,43.1 23,43.1 L26.6,43.1 C27.1,43.1 27.6,42.9 28,42.5 L28.4,42.1 L28.6,42.1 L29,42.5 C29.4,42.9 29.9,43.1 30.4,43.1 L34,43.1 C36.2,43.1 38,41.3 38,39.1 L38,36.5 C38,36 37.8,35.5 37.4,35.1 L37,34.6 L37,34.4 L37.4,34 C37.8,33.6 38,33.1 38,32.6 L38,30 C38,27.8 36.2,26 34,26 L34,26 Z M9,67 C9.7,67 10.4,67.4 10.7,68 L6,68 L7.3,67 L9,67 L9,67 Z M6.8,65 C6.6,65 6.5,65.1 6.4,65.2 L2.7,68 L2,68 L2,41 L11.8,41 L6.8,65 L6.8,65 Z M12,39 L2,39 L2,22 C2,19.6 3.7,17.6 6,17.1 C5.7,17.4 5.4,17.7 5.2,18.1 C4.5,19.4 4.7,21 5.5,22.2 L11.9,30.9 L11.9,39 L12,39 Z M21.1,39 L21.1,39 C20.7,39 20.4,38.8 20.2,38.6 L7.2,21 C6.8,20.4 6.7,19.7 7,19 C7.3,18.4 8,18 8.8,18 C9.4,18 10,18.3 10.4,18.9 L22,37.3 C22.3,37.8 22.1,38.2 22,38.4 C22,38.6 21.7,39 21.1,39 L21.1,39 Z M27.3,40.3 L26.6,41 L23,41 C22.7,41 22.4,40.9 22.2,40.8 C22.9,40.6 23.5,40.1 23.8,39.4 C24.4,38.4 24.3,37.2 23.7,36.3 L22.9,35 L28,35 L28,40 L28,40 C27.7,40 27.5,40.1 27.3,40.3 L27.3,40.3 Z M28,29 L28,34 L22.3,34 L21,32 L21,30 C21,28.9 21.9,28 23,28 L26.6,28 L27.3,28.7 C27.5,28.9 27.7,29 28,29 L28,29 L28,29 Z M36,39 C36,40.1 35.1,41 34,41 L30.4,41 L29.7,40.3 C29.5,40.1 29.3,40 29,40 L29,40 L29,35 L35,35 C35,35.3 35.1,35.5 35.3,35.7 L36,36.4 L36,39 L36,39 Z M36,32.6 L35.3,33.3 C35.1,33.5 35,33.7 35,34 L29,34 L29,29 L29,29 C29.3,29 29.5,28.9 29.7,28.7 L30.4,28 L34,28 C35.1,28 36,28.9 36,30 L36,32.6 L36,32.6 Z" id="Shape"></path>
                <path d="M57,13 C60.3,13 63,10.3 63,7 C63,3.7 60.3,1 57,1 C53.7,1 51,3.7 51,7 C51,10.3 53.7,13 57,13 L57,13 Z M57,3 C59.2,3 61,4.8 61,7 C61,9.2 59.2,11 57,11 C54.8,11 53,9.2 53,7 C53,4.8 54.8,3 57,3 L57,3 Z" id="Shape"></path>
                <path d="M57.1,15 L57,15 C53.6,15 50.8,17.5 50.2,20.7 L40.4,36.3 C39.8,37.3 39.8,38.4 40.3,39.4 C40.8,40.4 41.9,41 43,41 L43,41 C44,41 44.9,40.5 45.5,39.7 L50.1,33.5 L50.1,40.1 L55.1,65 L55,65 C52.8,65 51,66.8 51,69 C51,69.6 51.4,70 52,70 L63,70 C63.6,70 64,69.6 64,69 L64,22 C64,18.1 60.9,15 57.1,15 L57.1,15 Z M43.8,38.6 C43.6,38.9 43.3,39 42.9,39 L42.9,39 C42.3,39 42,38.6 42,38.4 C41.9,38.2 41.7,37.8 42,37.3 L53.6,18.8 C53.9,18.3 54.5,17.9 55.3,17.9 C56,17.9 56.7,18.3 57,18.9 C57.3,19.5 57.3,20.3 56.8,20.9 L43.8,38.6 L43.8,38.6 Z M53.3,68 C53.6,67.4 54.3,67 55,67 L56.7,67 L58,68 L53.3,68 L53.3,68 Z M62,68 L61.3,68 L57.6,65.2 C57.5,65.1 57.3,65.1 57.2,65 L52.3,41 L62,41 L62,68 L62,68 Z M62,39 L52,39 L52,30.9 L58.4,22.2 C59.3,21 59.4,19.5 58.7,18.1 C58.5,17.7 58.2,17.4 57.9,17.1 C60.2,17.5 61.9,19.5 61.9,22 L61.9,39 L62,39 Z" id="Shape"></path>
            </g>
        </g>
    </g>
</svg>